<svg width="216" height="52" viewBox="0 0 216 52" fill="none" xmlns="http://www.w3.org/2000/svg">
<path d="M0.176832 39.5934C0.206304 39.3237 0.250512 39.0675 0.309456 38.7977C0.604175 37.4762 1.28203 36.3434 2.59353 35.6421C3.56611 35.1162 4.465 34.9679 5.5702 34.8195C7.8248 34.6982 10.0941 34.6038 12.3782 34.6038C15.0602 34.6038 17.7421 34.6982 20.4535 34.8195C20.7483 34.8465 21.0282 34.887 21.323 34.9409C22.0892 35.0623 24.0049 35.3994 25.1396 37.2334C25.8027 38.3392 25.9058 39.4181 25.9795 40.6453C26.0385 41.8724 26.0827 43.0726 26.0385 44.2998C26.009 45.0955 25.9353 45.8911 25.8764 46.7002C25.6995 47.9544 25.508 48.9388 24.5943 49.9772C23.1797 51.5685 20.9988 51.7843 18.9357 51.9326C17.0937 51.9596 15.2223 52 13.3655 52C11.2288 52 9.13631 51.9461 6.99959 51.9056C5.34916 51.8112 3.74294 51.7168 2.29881 50.7998C0.0589439 49.3838 0 46.7407 0 44.5695L0.176832 39.5934ZM16.9316 47.7926C18.14 47.6982 19.2452 47.6038 19.8199 46.6867C20.0557 46.3226 20.1588 45.9585 20.262 45.1494V41.4679C20.2325 41.0768 20.203 40.7936 20.0851 40.4295C19.6431 39.0809 18.5526 38.9596 17.0937 38.8652H9.15104C7.86901 38.9461 7.36799 39.0809 6.83749 39.445C6.46909 39.6878 6.307 39.9305 6.23332 40.0654C6.02702 40.4295 5.9386 40.888 5.92386 41.0094C5.85018 41.6162 5.82071 42.5197 5.79124 43.8548C5.85018 45.2977 5.95334 46.3361 6.36594 46.889C6.83749 47.4959 7.7806 47.6847 9.35735 47.806H16.9316V47.7926Z" fill="white"/>
<path d="M75.8756 34.833V47.6172H88.7106V51.8247H70.0696V34.833H75.8756Z" fill="white"/>
<path d="M112.2 34.833V38.7303H97.7879V42.1017H111.433V45.972H97.7879V51.8247H92.0556V34.833H112.2Z" fill="white"/>
<path d="M121.498 34.833V51.8247H115.604V34.833H121.498Z" fill="white"/>
<path d="M135.099 34.8331C137.118 37.0986 139.152 39.3372 141.126 41.6163C142.91 43.6795 144.678 45.7968 146.431 47.914L146.328 40.1194V34.8196H151.692V51.8113H142.571C140.39 49.3839 138.209 46.9565 136.072 44.4482C134.495 42.6007 132.948 40.6992 131.415 38.8113V51.8113H125.993V34.8196H135.099V34.8331Z" fill="white"/>
<path d="M162.037 34.833V51.8247H156.142V34.833H162.037Z" fill="white"/>
<path d="M187.633 34.833V38.7573H179.278V51.8247H173.442V38.7843H165.234V34.833H187.633Z" fill="white"/>
<path d="M202.325 41.7645L208.588 34.833H216L205.272 45.8776V51.8247H199.466V45.8776L188.915 34.833H196.092L202.325 41.7645Z" fill="white"/>
<path d="M37.9745 30.0861C39.6185 30.0861 40.9512 28.8665 40.9512 27.362C40.9512 25.8575 39.6185 24.6379 37.9745 24.6379C36.3306 24.6379 34.9979 25.8575 34.9979 27.362C34.9979 28.8665 36.3306 30.0861 37.9745 30.0861Z" fill="white"/>
<path d="M59.0176 31.3134C60.043 31.3134 60.8743 30.5526 60.8743 29.6142C60.8743 28.6758 60.043 27.915 59.0176 27.915C57.9921 27.915 57.1608 28.6758 57.1608 29.6142C57.1608 30.5526 57.9921 31.3134 59.0176 31.3134Z" fill="white"/>
<path d="M51.5759 16.3039C51.5759 16.3039 51.3696 12.7842 49.6308 11.3278C47.8772 9.87137 45.6079 9.48029 43.088 8.80602C40.5829 8.13175 33.6128 6.28423 36.501 0C36.501 0 38.122 3.73548 42.6017 5.05705C47.0815 6.37863 52.3275 7.18776 53.4769 12.1774C53.4769 12.1774 55.3041 9.72303 58.6197 10.1815C61.9353 10.64 67.1666 12.9595 69.2591 12.9191C71.3516 12.8786 73.0315 12.4066 74.4609 10.8154C74.4609 10.8154 73.5768 15.1307 71.4253 15.7106C69.2739 16.2905 66.5624 15.5083 65.0594 15.1307C63.571 14.7531 58.5755 12.7168 55.3484 13.9035C52.6811 14.8745 51.5759 16.3039 51.5759 16.3039Z" fill="white"/>
<path d="M48.1718 34.3743L47.2877 33.282C46.9488 33.5652 46.3299 34.0776 45.7404 34.4822L48.054 37.3411L50.6475 34.5901C50.1907 34.1181 49.7781 33.6056 49.4097 33.0527L48.1718 34.3743Z" fill="white"/>
<path d="M59.9459 16.5737C56.7924 16.5737 53.9189 17.7604 51.8559 19.6619C52.0917 20.417 52.2538 21.1992 52.3422 21.9948C54.0368 19.8372 56.8072 18.4212 59.9459 18.4212C65.1035 18.4212 69.3033 22.2646 69.3033 26.9845C69.3033 31.7044 65.1035 35.5478 59.9459 35.5478C54.7883 35.5478 50.5886 31.7044 50.5886 26.9845C50.5886 26.6204 50.6181 26.2563 50.6623 25.9056C50.6475 25.9056 50.6475 25.9056 50.6328 25.8921C50.7802 25.1235 50.8686 24.3413 50.8686 23.5322C50.8686 16.277 44.4142 10.3704 36.4863 10.3704C28.5583 10.3704 22.1039 16.277 22.1039 23.5322C22.1039 30.7874 28.5583 36.694 36.4863 36.694C39.7134 36.694 42.6754 35.7096 45.0773 34.0778C45.3131 33.9025 46.2857 33.1608 46.8014 32.6888C47.1993 32.3112 47.5825 31.9202 47.9214 31.5021C47.5825 30.7604 47.3319 29.9917 47.1698 29.1961C45.0331 32.5809 41.0397 34.86 36.4715 34.86C29.6488 34.86 24.108 29.7894 24.108 23.5457C24.108 17.3019 29.6488 12.2314 36.4715 12.2314C43.2795 12.2314 48.8203 17.3019 48.8203 23.5457C48.8203 24.2199 48.7613 24.8807 48.6287 25.5146C48.6434 25.5146 48.6434 25.5146 48.6582 25.528C48.5845 26 48.555 26.499 48.555 26.9845C48.555 32.7293 53.6537 37.3953 59.9312 37.3953C66.2087 37.3953 71.3074 32.7293 71.3074 26.9845C71.3221 21.2397 66.2235 16.5737 59.9459 16.5737Z" fill="white"/>
<path d="M59.9754 38.3259L55.923 47.5904L51.5465 35.3051C51.5023 35.2647 51.458 35.2377 51.4138 35.1973L47.9951 38.8383L45.0774 35.2242C44.7237 35.44 44.3553 35.6558 43.9722 35.8446L39.5956 47.5769C38.8588 45.8913 38.0925 44.1786 37.3557 42.5064C36.6484 40.8747 35.9558 39.2294 35.278 37.5842C32.876 37.4089 30.6214 36.7346 28.6615 35.6693L35.8379 51.8114H43.4417L47.8035 39.7014L51.9591 51.8114H59.5334C60.7122 49.357 61.8764 46.8757 62.9816 44.3944C63.851 42.3985 64.691 40.4027 65.6046 38.4203C65.8846 37.8 66.194 37.1931 66.5035 36.5863C64.6025 37.6786 62.3774 38.3124 59.9754 38.3259Z" fill="white"/>
</svg>
